<svg width="26" height="26" viewBox="0 0 26 26" fill="none" xmlns="http://www.w3.org/2000/svg">
<path d="M16.5 7.46343L11.0059 13.1493L16.5 18.8352L14.8086 20.5818L7.61111 13.1493L14.8086 5.7168L16.5 7.46343Z" fill="#30318B"/>
<path fill-rule="evenodd" clip-rule="evenodd" d="M13 1.5C6.64872 1.5 1.5 6.64873 1.5 13C1.5 19.3513 6.64872 24.5 13 24.5C19.3513 24.5 24.5 19.3513 24.5 13C24.5 6.64872 19.3513 1.5 13 1.5ZM13 -1.96295e-06C5.82029 -1.33528e-06 -4.86361e-06 5.8203 -4.23594e-06 13C-3.60827e-06 20.1797 5.8203 26 13 26C20.1797 26 26 20.1797 26 13C26 5.8203 20.1797 -2.59061e-06 13 -1.96295e-06Z" fill="#30318B"/>
</svg>
