<svg width="211" height="41" viewBox="0 0 211 41" fill="none" xmlns="http://www.w3.org/2000/svg">
<path d="M19.0896 4.58024H12.2349V23.1679H6.72919V4.58024H0V0.329401H19.0896V4.58024Z" fill="#30318B"/>
<path d="M35.729 18.9013H28.1842L26.8666 23.1679H20.9844L29.3606 0.329401H34.5369L42.9758 23.1679H37.0623L35.729 18.9013ZM29.5018 14.6505H34.4114L31.9487 6.72919L29.5018 14.6505Z" fill="#30318B"/>
<path d="M65.9994 15.4348C65.9262 17.0243 65.4974 18.4308 64.7131 19.6542C63.9289 20.8673 62.8256 21.8084 61.4035 22.4777C59.9917 23.1469 58.3761 23.4816 56.5566 23.4816C53.5553 23.4816 51.192 22.5038 49.4666 20.5483C47.7412 18.5928 46.8784 15.8322 46.8784 12.2663V11.1369C46.8784 8.89905 47.2654 6.94356 48.0392 5.27041C48.8235 3.58681 49.9476 2.29012 51.4116 1.38035C52.8756 0.460115 54.5697 0 56.4938 0C59.265 0 61.4923 0.732002 63.1759 2.19601C64.8595 3.64955 65.8164 5.65733 66.0464 8.21933H60.5564C60.5146 6.82853 60.1643 5.82987 59.5055 5.22336C58.8467 4.61684 57.8428 4.31358 56.4938 4.31358C55.1239 4.31358 54.12 4.82598 53.4821 5.85079C52.8443 6.87559 52.5096 8.51214 52.4783 10.7604V12.3761C52.4783 14.8126 52.7815 16.5537 53.388 17.5994C54.005 18.6451 55.0612 19.168 56.5566 19.168C57.8219 19.168 58.7892 18.87 59.4584 18.2739C60.1277 17.6778 60.4832 16.7315 60.525 15.4348H65.9994Z" fill="#30318B"/>
<path d="M91.1562 12.2192C91.1562 14.4466 90.7431 16.4178 89.917 18.1327C89.0909 19.8477 87.9145 21.1705 86.3877 22.1012C84.8714 23.0215 83.1408 23.4816 81.1957 23.4816C79.2507 23.4816 77.5253 23.0371 76.0194 22.1483C74.5136 21.249 73.3372 19.968 72.4902 18.3053C71.6536 16.6426 71.2144 14.7342 71.1725 12.58V11.2937C71.1725 9.05591 71.5804 7.08473 72.396 5.38021C73.2222 3.66524 74.3986 2.34241 75.9253 1.41172C77.4625 0.48103 79.2089 0.0156858 81.1644 0.0156858C83.0989 0.0156858 84.8244 0.475801 86.3407 1.39603C87.857 2.31626 89.0334 3.62864 89.87 5.33316C90.717 7.02722 91.1457 8.97225 91.1562 11.1683V12.2192ZM85.5564 11.2624C85.5564 8.99317 85.1747 7.27296 84.4113 6.10176C83.6584 4.9201 82.5761 4.32927 81.1644 4.32927C78.4037 4.32927 76.9449 6.39979 76.788 10.5408L76.7724 12.2192C76.7724 14.457 77.1436 16.1772 77.886 17.3798C78.6285 18.5824 79.7317 19.1837 81.1957 19.1837C82.5865 19.1837 83.6584 18.5928 84.4113 17.4112C85.1642 16.2295 85.5459 14.5302 85.5564 12.3133V11.2624Z" fill="#30318B"/>
<path d="M116.282 23.1679H110.807L102.713 8.95656V23.1679H97.2078V0.329401H102.713L110.792 14.5407V0.329401H116.282V23.1679Z" fill="#30318B"/>
<path d="M140.435 4.58024H133.58V23.1679H128.074V4.58024H121.345V0.329401H140.435V4.58024Z" fill="#30318B"/>
<path d="M160.148 13.4897H151.49V18.9327H161.717V23.1679H145.984V0.329401H161.748V4.58024H151.49V9.39577H160.148V13.4897Z" fill="#30318B"/>
<path d="M185.65 15.4348C185.577 17.0243 185.148 18.4308 184.364 19.6542C183.58 20.8673 182.477 21.8084 181.054 22.4777C179.643 23.1469 178.027 23.4816 176.207 23.4816C173.206 23.4816 170.843 22.5038 169.118 20.5483C167.392 18.5928 166.529 15.8322 166.529 12.2663V11.1369C166.529 8.89905 166.916 6.94356 167.69 5.27041C168.474 3.58681 169.599 2.29012 171.063 1.38035C172.527 0.460115 174.221 0 176.145 0C178.916 0 181.143 0.732002 182.827 2.19601C184.51 3.64955 185.467 5.65733 185.697 8.21933H180.207C180.166 6.82853 179.815 5.82987 179.156 5.22336C178.498 4.61684 177.494 4.31358 176.145 4.31358C174.775 4.31358 173.771 4.82598 173.133 5.85079C172.495 6.87559 172.161 8.51214 172.129 10.7604V12.3761C172.129 14.8126 172.432 16.5537 173.039 17.5994C173.656 18.6451 174.712 19.168 176.207 19.168C177.473 19.168 178.44 18.87 179.109 18.2739C179.779 17.6778 180.134 16.7315 180.176 15.4348H185.65Z" fill="#30318B"/>
<path d="M210.556 23.1679H205.082V13.6309H196.972V23.1679H191.467V0.329401H196.972V9.39577H205.082V0.329401H210.556V23.1679Z" fill="#30318B"/>
<path d="M7 37.8916V26.9115H7.83134V37.8916H7ZM8.56858 37.8916V37.0916C9.85481 37.0916 10.7437 36.9818 11.2352 36.7622C11.9462 36.4171 12.307 35.7635 12.3175 34.8015V30.0016C12.3175 28.8932 11.8469 28.1978 10.9058 27.9154C10.4666 27.7899 9.68749 27.722 8.56858 27.7115V26.9115C10.1058 26.9115 11.1881 27.0736 11.8155 27.3978C12.6939 27.8684 13.1384 28.7363 13.1488 30.0016V34.8015C13.1488 36.2968 12.5371 37.238 11.3136 37.6249C10.7384 37.8027 9.82344 37.8916 8.56858 37.8916Z" fill="#30318B"/>
<path d="M20.3134 28.6056C20.3134 28.3755 20.4285 28.2134 20.6585 28.1193C20.7213 28.0984 20.784 28.088 20.8468 28.088C21.0873 28.088 21.2494 28.203 21.333 28.433C21.3539 28.4958 21.3644 28.5533 21.3644 28.6056C21.3644 28.8461 21.2494 29.0082 21.0193 29.0918C20.9566 29.1128 20.899 29.1232 20.8468 29.1232C20.6062 29.1232 20.4389 29.0134 20.3448 28.7938C20.3239 28.7311 20.3134 28.6683 20.3134 28.6056ZM20.4389 37.8916V29.7507H21.2546V37.8916H20.4389Z" fill="#30318B"/>
<path d="M28.3565 40.7464L28.5604 39.9778H31.4309C32.1629 39.9464 32.7119 39.6693 33.0779 39.1464C33.2347 38.9268 33.3132 38.7124 33.3132 38.5033V37.123C33.0308 37.4785 32.6334 37.7138 32.121 37.8288C31.9642 37.8706 31.8073 37.8916 31.6505 37.8916V37.1543C32.1315 37.1543 32.5602 36.94 32.9367 36.5112C33.1877 36.2289 33.3132 35.9465 33.3132 35.6642V31.931C33.3132 31.3663 33.0151 30.9375 32.4191 30.6447C32.1472 30.5088 31.891 30.4408 31.6505 30.4408V29.6722C32.2047 29.6722 32.7014 29.85 33.1406 30.2055C33.2138 30.2683 33.2713 30.3258 33.3132 30.3781V29.6722H34.1131V38.5033C34.1131 38.9425 33.9144 39.3974 33.5171 39.868C33.0256 40.4431 32.4138 40.7359 31.6818 40.7464H28.3565ZM28.4976 35.6642V31.8682C28.5081 31.3767 28.7225 30.9009 29.1408 30.4408C29.6322 29.9284 30.2335 29.6722 30.9446 29.6722V30.4408C30.3904 30.4408 29.9303 30.697 29.5643 31.2094C29.3865 31.4604 29.2976 31.6957 29.2976 31.9153V35.6485C29.2976 36.004 29.4806 36.3491 29.8466 36.6838C30.1812 36.9766 30.5472 37.123 30.9446 37.123V37.8916C30.0035 37.8811 29.2976 37.4785 28.827 36.6838C28.6074 36.3282 28.4976 35.9884 28.4976 35.6642Z" fill="#30318B"/>
<path d="M41.2778 28.6056C41.2778 28.3755 41.3928 28.2134 41.6228 28.1193C41.6856 28.0984 41.7483 28.088 41.8111 28.088C42.0516 28.088 42.2137 28.203 42.2973 28.433C42.3182 28.4958 42.3287 28.5533 42.3287 28.6056C42.3287 28.8461 42.2137 29.0082 41.9836 29.0918C41.9209 29.1128 41.8634 29.1232 41.8111 29.1232C41.5706 29.1232 41.4032 29.0134 41.3091 28.7938C41.2882 28.7311 41.2778 28.6683 41.2778 28.6056ZM41.4032 37.8916V29.7507H42.2189V37.8916H41.4032Z" fill="#30318B"/>
<path d="M49.1639 30.6447V29.8448H50.1678V26.8802H50.9835V29.8448H51.9874V30.6447H50.9835V35.3661C50.9835 36.2341 51.2763 36.7726 51.8619 36.9818C52.1024 37.055 52.3795 37.0916 52.6932 37.0916H52.756L52.9442 37.8916H52.6148C51.3495 37.8811 50.5809 37.3896 50.309 36.4171C50.2149 36.0825 50.1678 35.6851 50.1678 35.225V30.6447H49.1639Z" fill="#30318B"/>
<path d="M59.4186 35.9779C59.4186 36.5321 59.6905 36.9975 60.2343 37.3739C60.6944 37.7086 61.2487 37.8759 61.897 37.8759V37.1073C61.0813 37.1073 60.5533 36.8406 60.3127 36.3073C60.2395 36.14 60.2029 35.9622 60.2029 35.774V35.2093C60.2029 34.9374 60.2605 34.7439 60.3755 34.6289C60.5533 34.4511 61.2068 34.2368 62.3362 33.9858C63.3401 33.7557 63.9937 33.5623 64.2969 33.4054V35.523C64.2865 36.5687 63.727 37.0968 62.6185 37.1073V37.8759C63.3192 37.8759 63.8839 37.7138 64.3126 37.3896C64.3544 37.3582 64.391 37.3269 64.4224 37.2955C64.7675 37.651 65.1335 37.8445 65.5204 37.8759V37.0916C65.2485 37.0811 65.1126 36.9034 65.1126 36.5583V32.1192C65.1126 31.3872 64.8512 30.7755 64.3283 30.284C63.8682 29.8552 63.2983 29.6409 62.6185 29.6409V30.3938C63.1309 30.3938 63.5597 30.6029 63.9048 31.0212C64.1558 31.3349 64.2812 31.6957 64.2812 32.1035V32.3702C64.2917 32.6211 63.6433 32.9035 62.3362 33.2172C61.0918 33.5205 60.3807 33.7191 60.2029 33.8133C59.6905 34.1061 59.4291 34.5819 59.4186 35.2407V35.9779ZM59.5285 31.7114L60.2657 31.9937C60.2657 31.3977 60.5323 30.948 61.0657 30.6447C61.3271 30.4879 61.6042 30.4095 61.897 30.4095V29.6409C61.1964 29.6409 60.5951 29.8918 60.0931 30.3938C59.7167 30.7911 59.5285 31.2303 59.5285 31.7114Z" fill="#30318B"/>
<path d="M72.638 37.8916V26.9115H73.485V37.8916H72.638Z" fill="#30318B"/>
</svg>
